<svg xmlns="http://www.w3.org/2000/svg" viewBox="0 0 20 20"><g transform="matrix(0.4,0,0,0.4,0,0)"><defs><style>.e{fill:#45413c}</style></defs><ellipse cx="25" cy="25" rx="23.5" ry="21.5" style="fill:#ffe500"></ellipse><path d="M25 42.5C11.7 42.5 2.594 33.933 1.6 23c-.06.659-.1 1.325-.1 2 0 11.874 9.4 21.5 23.5 21.5S48.5 36.874 48.5 25c0-.676-.039-1.342-.1-2-.994 10.933-10.1 19.5-23.4 19.5z" style="fill:#f2c100"></path><ellipse cx="25" cy="6.002" rx="6.5" ry="1.001" style="fill:#fffacf"></ellipse><ellipse cx="25" cy="25" rx="23.5" ry="21.5" style="stroke-miterlimit:10;fill:none;stroke:#45413c;stroke-width:1.25px"></ellipse><circle class="e" cx="32.583" cy="17.486" r="1.75"></circle><circle class="e" cx="17.417" cy="17.486" r="1.75"></circle><path d="M19.5 24.75h11M14.535 11.484c1.949 2.36 5.437 2.052 6.463 1.129M29 11.849c1.28-2.265 4.727-2.363 6.5 0" style="stroke-linecap:round;stroke-linejoin:round;fill:none;stroke:#45413c;stroke-width:1.25px"></path></g></svg>