<svg xmlns="http://www.w3.org/2000/svg" viewBox="0 0 20 20"><g transform="matrix(0.4,0,0,0.4,0,0)"><defs><style>.c{fill:none;stroke:#45413c;stroke-linecap:round;stroke-linejoin:round;stroke-width:1.25px}.f{fill:#6dd627}.j{fill:#45413c}</style></defs><path d="M16.121 48.5a2.011 2.011 0 0 1-1.988-2.257C14.955 39.306 19.508 34 25 34s10.045 5.307 10.867 12.243a2.011 2.011 0 0 1-1.988 2.257z" style="fill:#b89558"></path><path d="M34.349 40.855a16.588 16.588 0 0 1-18.518-.369C17.8 36.576 21.172 34 25 34c3.947 0 7.408 2.739 9.349 6.855z" style="fill:#947746"></path><path class="c" d="M16.121 48.5a2.011 2.011 0 0 1-1.988-2.257C14.955 39.306 19.508 34 25 34s10.045 5.307 10.867 12.243a2.011 2.011 0 0 1-1.988 2.257z"></path><path d="m25.118 43.5 2.625.876a2 2 0 0 0 2.582-2.344l-.707-3.094 3-2.438h-15l3 2.438-.707 3.094a2 2 0 0 0 2.582 2.344z" style="fill:#bf8256;stroke:#45413c;stroke-linecap:round;stroke-linejoin:round;stroke-width:1.25px"></path><path style="fill:#6dd627;stroke:#45413c;stroke-linecap:round;stroke-linejoin:round;stroke-width:1.25px" d="m19.663 35.817 5.455 7.682 5.376-7.564"></path><path class="c" d="M25.118 43.499v5"></path><path class="f" d="M42.089 20.749c-.073 0-.142.016-.214.022a16.661 16.661 0 0 0-32.938 0c-.073-.006-.141-.022-.215-.022a2.567 2.567 0 0 0 0 5.134c.074 0 .142-.016.215-.021a16.661 16.661 0 0 0 32.938 0c.072.005.141.021.214.021a2.567 2.567 0 0 0 0-5.134z"></path><path class="c" d="M42.089 20.749c-.073 0-.142.016-.214.022a16.661 16.661 0 0 0-32.938 0c-.073-.006-.141-.022-.215-.022a2.567 2.567 0 0 0 0 5.134c.074 0 .142-.016.215-.021a16.661 16.661 0 0 0 32.938 0c.072.005.141.021.214.021a2.567 2.567 0 0 0 0-5.134z"></path><path d="m35.578 10.12-1.831 2.288c1.6 4.26 4.523 7.625 8.039 7.917a16.682 16.682 0 0 0-6.208-10.205z" style="fill:#87898c;stroke:#45413c;stroke-linecap:round;stroke-linejoin:round;stroke-width:1.25px"></path><path d="m40.164 2.783-3.208 3.208S37.6 4.066 35.672 1.5c-1.925 3.85-5.133 5.134-10.266 5.134A16.67 16.67 0 0 0 8.957 20.668c6.205-1.98 7.465-6.977 7.465-6.977a20.64 20.64 0 0 0 15.4 1.283c8.984-2.566 9.625-8.341 8.342-12.191z" style="fill:#87898c"></path><path d="M25.406 9.281c5.133 0 8.341-1.283 10.266-5.133 1.925 2.566 1.284 4.491 1.284 4.491l3.208-3.208a9.928 9.928 0 0 1 .393 1.651 9.2 9.2 0 0 0-.393-4.3l-3.208 3.209S37.6 4.066 35.672 1.5c-1.925 3.85-5.133 5.134-10.266 5.134A16.67 16.67 0 0 0 8.957 20.668c.262-.083.5-.179.745-.273A16.66 16.66 0 0 1 25.406 9.281z" style="fill:#bdbec0"></path><path class="c" d="m40.164 2.783-3.208 3.208S37.6 4.066 35.672 1.5c-1.925 3.85-5.133 5.134-10.266 5.134A16.67 16.67 0 0 0 8.957 20.668c6.205-1.98 7.465-6.977 7.465-6.977a20.64 20.64 0 0 0 15.4 1.283c8.984-2.566 9.625-8.341 8.342-12.191z"></path><circle class="j" cx="21.954" cy="23.103" r="1.155"></circle><circle class="j" cx="28.883" cy="24.316" r="1.155"></circle><path class="f" d="M45.525 37.613h-.058a2.565 2.565 0 0 0 .288-.829c.246-1.424-1.117-1.714-2.615-1.521l-.066.166a2.073 2.073 0 0 0-.427-1.213c-.814-1.154-2.949-.513-4.106.3a2.264 2.264 0 0 0-2.1-.358c-2.139.643-2.245 4.17-1.688 6.8-.84.206-1.521.746-1.809 2.414a6.468 6.468 0 0 0 1.427 5.128h10.748a6.331 6.331 0 0 0 .257-3.666 9.886 9.886 0 0 1 .1-3.534c.171-.985 1.071-.322 1.819-1.715.659-1.219-.703-2.009-1.77-1.972z"></path><path class="c" d="M34.755 40.967c-.559-2.634-.455-6.168 1.686-6.812s3.771 1.667 2.037 2.889c-1.156.815.474 3.127.474 3.127"></path><path class="c" d="M38.535 34.517c1.156-.815 3.3-1.46 4.112-.3a1.739 1.739 0 0 1-1 2.871c-1.071.322-.6 3.449-.6 3.449"></path><path class="c" d="M43.14 35.26c1.5-.193 2.861.1 2.615 1.521-.256 1.478-1.327 1.8-1.819 1.715s-.919 2.378-.919 2.378"></path><path class="c" d="M45.524 37.613c1.068-.037 2.43.753 1.775 1.972-.748 1.393-1.648.73-1.819 1.715a9.885 9.885 0 0 0-.1 3.534 6.343 6.343 0 0 1-.257 3.667H34.371a6.469 6.469 0 0 1-1.427-5.129c.458-2.647 1.9-2.454 3.408-2.591 1.719-.157 2.005 3.074-.687 3.971"></path><path class="f" d="M2.7 39.585c.748 1.393 1.648.73 1.819 1.715a9.886 9.886 0 0 1 .1 3.534 6.331 6.331 0 0 0 .262 3.666h10.748a6.468 6.468 0 0 0 1.427-5.128c-.288-1.668-.969-2.208-1.809-2.414.557-2.633.451-6.16-1.688-6.8a2.264 2.264 0 0 0-2.1.358c-1.157-.813-3.292-1.454-4.106-.3a2.073 2.073 0 0 0-.427 1.213l-.066-.169c-1.5-.193-2.861.1-2.615 1.521a2.565 2.565 0 0 0 .288.829h-.058c-1.067-.034-2.429.756-1.775 1.975z"></path><path class="c" d="M15.245 40.967c.559-2.634.455-6.168-1.686-6.812s-3.771 1.667-2.037 2.889c1.156.815-.474 3.127-.474 3.127"></path><path class="c" d="M11.465 34.517c-1.156-.815-3.3-1.46-4.112-.3a1.739 1.739 0 0 0 1 2.871c1.071.322.6 3.449.6 3.449"></path><path class="c" d="M6.86 35.26c-1.5-.193-2.861.1-2.615 1.521.256 1.478 1.327 1.8 1.819 1.715s.919 2.378.919 2.378"></path><path class="c" d="M4.476 37.613c-1.068-.037-2.43.753-1.775 1.972.748 1.393 1.648.73 1.819 1.715a9.885 9.885 0 0 1 .1 3.534 6.343 6.343 0 0 0 .261 3.666h10.748a6.469 6.469 0 0 0 1.427-5.129c-.458-2.647-1.905-2.454-3.408-2.591-1.719-.157-2 3.074.687 3.971M28.15 20.735a4.985 4.985 0 0 0 3.484 1.681m-12.855-.468c.825-1.65 2.506-2.665 4.33-1.84"></path><path d="M18.167 30.711c3.4 0 5.006-3.029 10.048-2.458 3.734.423 4.584 2.665 4.584 2.665s.933 5.2-7.821 5.2-6.811-5.407-6.811-5.407z" style="fill:#e04122"></path><path d="M32.337 33.224a5.977 5.977 0 0 0-4.122-1.937c-4.9-.555-6.553 2.277-9.762 2.442.727 1.238 2.489 2.386 6.525 2.386 4.7 0 6.608-1.5 7.367-2.887" style="fill:#ff6242"></path><path d="M20.62 35.446v-2.814l3.053.654v2.785a10.249 10.249 0 0 1-3.053-.625zm6.185-7.254v2.745l4.315.556.172-2.221a7.018 7.018 0 0 0-3.077-1.019 10.757 10.757 0 0 0-1.41-.07" style="fill:#ffffff;stroke:#45413c;stroke-linecap:round;stroke-linejoin:round;stroke-width:1.25px"></path><path class="c" d="M18.167 30.711c3.4 0 5.006-3.029 10.048-2.458 3.734.423 4.584 2.665 4.584 2.665s.933 5.2-7.821 5.2-6.811-5.407-6.811-5.407z"></path></g></svg>