<svg xmlns="http://www.w3.org/2000/svg" viewBox="0 0 20 20"><g transform="matrix(0.4,0,0,0.4,0,0)"><defs><style>.b{fill:none;stroke:#45413c;stroke-linecap:round;stroke-linejoin:round;stroke-width:1.25px}</style></defs><path d="M38.05 31.164c-1.189-9.276-4.034-13.069-6.4-13.543a2.721 2.721 0 0 0-2.767 1.3c-4.227-5.3-7.333-7.9-9.086-7.463a2.5 2.5 0 0 0-1.9 2.37v.128c-1.506-1.175-2.988-1.625-4.267-.6-1.906 1.524-1.055 3.964-.648 4.864a2.233 2.233 0 0 0-2.2.351c-1.678 1.259-.017 5.111.388 5.981a2.094 2.094 0 0 0-1.81-.292c-3.244 1.081-.474 5.215 4.026 15.377 2.915 6.584 9.756 10.435 16.566 8.1s9.014-9.431 8.098-16.573z" style="fill:#f2c100"></path><path class="b" d="M28.879 18.921a2.65 2.65 0 0 1 2.767-1.3c2.37.474 5.215 4.267 6.4 13.543.916 7.142-1.285 14.227-8.095 16.566S16.3 46.219 13.389 39.635c-4.5-10.162-7.27-14.3-4.026-15.377 2.844-.948 5.215 5.215 5.215 5.215"></path><path class="b" d="M11.073 24.33s-2.184-4.339-.288-5.761c2.429-1.821 5.215 1.422 8.534 7.586"></path><path class="b" d="M12.982 18.218s-1.723-2.968.648-4.864 5.437 1.246 8.059 4.746c2.845 3.793 3.319 5.689 3.319 5.689"></path><path class="b" d="M17.9 13.828a2.5 2.5 0 0 1 1.9-2.37c2.345-.587 7.112 4.266 13.749 13.749"></path><path d="M48 29.693c-1.253-9.783-4.253-13.783-6.753-14.283a2.872 2.872 0 0 0-2.918 1.371c-4.458-5.589-7.729-8.333-9.582-7.871a2.638 2.638 0 0 0-2 2.5v.135c-1.588-1.24-3.151-1.714-4.5-.635-2.009 1.607-1.112 4.181-.682 5.13a2.355 2.355 0 0 0-2.318.37c-1.77 1.328-.018 5.39.409 6.308a2.206 2.206 0 0 0-1.909-.308c-3.42 1.14-.5 5.5 4.246 16.217 3.075 6.943 10.29 11 17.471 8.537S48.968 37.225 48 29.693z" style="fill:#ffe500"></path><path class="b" d="M38.329 16.781a2.8 2.8 0 0 1 2.918-1.371c2.5.5 5.5 4.5 6.755 14.283.965 7.532-1.356 15-8.538 17.471s-14.4-1.594-17.471-8.537C17.247 27.91 14.327 23.55 17.747 22.41c3-1 5.5 5.5 5.5 5.5"></path><path class="b" d="M19.551 22.486s-2.3-4.576-.3-6.076c2.562-1.921 5.5 1.5 9 8"></path><path class="b" d="M21.565 16.04s-1.818-3.13.682-5.13 5.735 1.312 8.5 5c3 4 3.5 6 3.5 6"></path><path class="b" d="M26.747 11.41a2.638 2.638 0 0 1 2-2.5c2.474-.618 7.5 4.5 14.5 14.5"></path><path d="M8.435 10.5 4.04 9.034a.5.5 0 0 1-.228-.792l2.114-2.568a.5.5 0 0 1 .821.072l2.281 4.032a.5.5 0 0 1-.593.722zm-1.578 6.16-4.416 1.4a.5.5 0 0 1-.65-.507l.2-3.32a.5.5 0 0 1 .707-.425l4.216 1.919a.5.5 0 0 1-.057.933zm6.427-9.677-2.726-3.746a.5.5 0 0 1 .275-.777l3.213-.86a.5.5 0 0 1 .626.536l-.486 4.607a.5.5 0 0 1-.902.24z" style="fill:#ffe500;stroke:#eb6d00;stroke-linecap:round;stroke-linejoin:round;stroke-width:1.25px"></path></g></svg>