<svg xmlns="http://www.w3.org/2000/svg" viewBox="0 0 20 20"><g transform="matrix(0.4,0,0,0.4,0,0)"><defs><style>.a{fill:#ffe500}.b{fill:#f2c100}.c{fill:none;stroke-linecap:round;stroke-linejoin:round;stroke-width:1.25px;stroke:#45413c}</style></defs><path class="a" d="M34.369 32.433c-5.408-.408-7.469 1.08-6.684 4.592.474 2.119 1.22 5.625.046 8.33-1.4 3.221-6.756 4.069-8.133 1.084-.677-1.466.535-4.286 0-7.73-.5-3.2-3.308-7.588-6.284-10.9l-9.745.9A1.931 1.931 0 0 1 1.46 26.8V7.475a1.931 1.931 0 0 1 2.055-1.927l9.981.644c3.732-3.853 8.867-4.067 15.414-4.067a48.671 48.671 0 0 1 14.695 2.449z"></path><path class="b" d="M22.7 42.874c-.792-1.516.628-4.432 0-7.994-.583-3.309-3.874-7.846-7.359-11.266l-11.415.934A2.17 2.17 0 0 1 1.46 22.56v4.24a1.931 1.931 0 0 0 2.109 1.922l9.745-.9c2.976 3.307 5.786 7.7 6.283 10.9.537 3.444-.676 6.264 0 7.73 1.378 2.985 6.736 2.137 8.134-1.084a6.556 6.556 0 0 0 .246-.728c-2.139.411-4.396-.088-5.277-1.766z"></path><path class="c" d="M34.369 32.433c-5.408-.408-7.469 1.08-6.684 4.592.474 2.119 1.22 5.625.046 8.33-1.4 3.221-6.756 4.069-8.133 1.084-.677-1.466.535-4.286 0-7.73-.5-3.2-3.308-7.588-6.284-10.9l-9.745.9A1.931 1.931 0 0 1 1.46 26.8V7.475a1.931 1.931 0 0 1 2.055-1.927l9.981.644c3.732-3.853 8.867-4.067 15.414-4.067a48.671 48.671 0 0 1 14.695 2.449z"></path><path class="a" d="M46.741 5.54c0 2.109-1.688 3.819-3.23 3.819l-8.8-.2C33.366 9.158 31.8 8 31.8 5.54s1.566-3.619 2.914-3.619l8.8-.2c1.539-.001 3.227 1.709 3.227 3.819z"></path><path class="b" d="m43.511 6.508-8.8-.2a2.925 2.925 0 0 1-2.695-2.194A4.632 4.632 0 0 0 31.8 5.54c0 2.456 1.566 3.618 2.914 3.618l8.8.2c1.542 0 3.23-1.71 3.23-3.819a4 4 0 0 0-.27-1.426 3.5 3.5 0 0 1-2.963 2.395z"></path><path class="c" d="M46.741 5.54c0 2.109-1.688 3.819-3.23 3.819l-8.8-.2C33.366 9.158 31.8 8 31.8 5.54s1.566-3.619 2.914-3.619l8.8-.2c1.539-.001 3.227 1.709 3.227 3.819z"></path><path class="a" d="M47.256 13.139a3.972 3.972 0 0 1-3.5 4.01l-9.543-.211c-1.462 0-3.161-1.22-3.161-3.8s1.7-3.8 3.161-3.8l9.543-.21a3.971 3.971 0 0 1 3.5 4.011z"></path><path class="b" d="m43.752 14.558-9.543-.21a3.181 3.181 0 0 1-2.978-2.5 4.8 4.8 0 0 0-.183 1.3c0 2.578 1.7 3.8 3.161 3.8l9.543.211a3.972 3.972 0 0 0 3.5-4.01 4.029 4.029 0 0 0-.231-1.295 3.811 3.811 0 0 1-3.269 2.704z"></path><path class="c" d="M47.256 13.139a3.972 3.972 0 0 1-3.5 4.01l-9.543-.211c-1.462 0-3.161-1.22-3.161-3.8s1.7-3.8 3.161-3.8l9.543-.21a3.971 3.971 0 0 1 3.5 4.011z"></path><path class="a" d="M47.922 28.949a4.165 4.165 0 0 1-3.689 4.194l-10.048-.221c-1.538 0-3.327-1.276-3.327-3.973s1.789-3.975 3.327-3.975l10.048-.22a4.165 4.165 0 0 1 3.689 4.195z"></path><path class="b" d="m44.233 30.877-10.048-.221a3.375 3.375 0 0 1-3.2-2.84 5.088 5.088 0 0 0-.132 1.132c0 2.7 1.789 3.975 3.327 3.975l10.048.22a4.158 4.158 0 0 0 3.514-5.327 4.044 4.044 0 0 1-3.509 3.061z"></path><path class="c" d="M47.922 28.949a4.165 4.165 0 0 1-3.689 4.194l-10.048-.221c-1.538 0-3.327-1.276-3.327-3.973s1.789-3.975 3.327-3.975l10.048-.22a4.165 4.165 0 0 1 3.689 4.195z"></path><path class="a" d="M48.54 20.957c0 2.317-1.882 4.2-3.6 4.2l-9.8-.221c-1.5 0-3.246-1.276-3.246-3.974s1.745-3.974 3.246-3.974l9.8-.22c1.718-.005 3.6 1.873 3.6 4.189z"></path><path class="b" d="m44.94 22.885-9.8-.22a3.319 3.319 0 0 1-3.118-2.841 5.3 5.3 0 0 0-.129 1.133c0 2.7 1.746 3.974 3.247 3.974l9.8.221c1.718 0 3.6-1.878 3.6-4.195a4.241 4.241 0 0 0-.171-1.133 3.973 3.973 0 0 1-3.429 3.061z"></path><path class="c" d="M48.54 20.957c0 2.317-1.882 4.2-3.6 4.2l-9.8-.221c-1.5 0-3.246-1.276-3.246-3.974s1.745-3.974 3.246-3.974l9.8-.22c1.718-.005 3.6 1.873 3.6 4.189zM13.5 6.192a7.079 7.079 0 0 0-1.413 2.27m1.227 19.352a6.544 6.544 0 0 1-1.231-2.662"></path><path d="M27.388 28.948c-.952-5-3.806-8.492-7.374-10.078" style="stroke:#f2c100;fill:none;stroke-linecap:round;stroke-linejoin:round;stroke-width:1.25px"></path></g></svg>