<svg xmlns="http://www.w3.org/2000/svg" viewBox="0 0 20 20"><g transform="matrix(0.4,0,0,0.4,0,0)"><defs><style>.h{fill:none;stroke:#45413c;stroke-width:1.25px;stroke-linecap:round;stroke-linejoin:round}.f{fill:#ff6196}.g{fill:#ff87af}</style></defs><ellipse cx="25" cy="26.486" rx="21.316" ry="19.502" style="fill:#ffe500"></ellipse><path d="M25 42.357c-12.062 0-20.324-7.768-21.226-17.687-.055.6-.09 1.2-.09 1.816 0 10.77 8.526 19.5 21.316 19.5s21.316-8.732 21.316-19.5c0-.613-.035-1.217-.09-1.816-.902 9.919-9.164 17.687-21.226 17.687z" style="fill:#f2c100"></path><ellipse cx="25" cy="9.253" rx="5.896" ry=".908" style="fill:#fffacf"></ellipse><ellipse cx="25" cy="26.486" rx="21.316" ry="19.502" style="stroke-miterlimit:10;stroke:#45413c;stroke-width:1.25px;fill:none"></ellipse><path d="M21.023 24.358a1 1 0 0 1 1-.941h5.959a1 1 0 0 1 1 .94c.116 1.951-.071 6.26-3.977 6.26s-4.098-4.307-3.982-6.259z" style="stroke-linecap:round;stroke-linejoin:round;fill:#ff6242;stroke:#45413c;stroke-width:1.25px"></path><path class="f" d="M3.981 11.63a5.828 5.828 0 0 1 9.053-5.8 5.828 5.828 0 0 1 10.484 2.388c1.2 6.9-7.761 13.2-7.761 13.2S5.185 18.526 3.981 11.63z"></path><path class="g" d="M18.329 6.834a5.824 5.824 0 0 0-3.723 1.386 2.242 2.242 0 0 1-2.239.391 5.825 5.825 0 0 0-3.973-.042A5.733 5.733 0 0 0 4.546 13.4a7.566 7.566 0 0 1-.565-1.767 5.828 5.828 0 0 1 9.053-5.8 5.828 5.828 0 0 1 10.484 2.385 7.508 7.508 0 0 1 .067 1.854 5.731 5.731 0 0 0-5.256-3.238z"></path><path class="h" d="M3.981 11.63a5.828 5.828 0 0 1 9.053-5.8 5.828 5.828 0 0 1 10.484 2.388c1.2 6.9-7.761 13.2-7.761 13.2S5.185 18.526 3.981 11.63z"></path><path class="f" d="M46.019 11.63a5.828 5.828 0 0 0-9.053-5.8 5.828 5.828 0 0 0-10.484 2.388c-1.2 6.9 7.761 13.2 7.761 13.2s10.572-2.892 11.776-9.788z"></path><path class="g" d="M31.671 6.834a5.824 5.824 0 0 1 3.723 1.386 2.242 2.242 0 0 0 2.239.391 5.825 5.825 0 0 1 3.973-.042 5.733 5.733 0 0 1 3.848 4.831 7.566 7.566 0 0 0 .565-1.767 5.828 5.828 0 0 0-9.053-5.8 5.828 5.828 0 0 0-10.484 2.385 7.508 7.508 0 0 0-.067 1.854 5.731 5.731 0 0 1 5.256-3.238z"></path><path class="h" d="M46.019 11.63a5.828 5.828 0 0 0-9.053-5.8 5.828 5.828 0 0 0-10.484 2.388c-1.2 6.9 7.761 13.2 7.761 13.2s10.572-2.892 11.776-9.788z"></path></g></svg>