<svg xmlns="http://www.w3.org/2000/svg" viewBox="0 0 20 20"><g transform="matrix(0.4,0,0,0.4,0,0)"><defs><style>.a{fill:#ffe500}.h{fill:none}.f,.h{stroke:#45413c;stroke-width:1.25px;stroke-linecap:round;stroke-linejoin:round}.f{fill:#ffffff}.g{fill:#fff48c}</style></defs><ellipse class="a" cx="25" cy="23.993" rx="23.5" ry="21.5"></ellipse><path d="M25 41.49c-13.3 0-22.406-8.564-23.4-19.5-.06.66-.1 1.326-.1 2 0 11.874 9.4 21.5 23.5 21.5s23.5-9.625 23.5-21.5c0-.676-.039-1.342-.1-2-.994 10.936-10.1 19.5-23.4 19.5z" style="fill:#f2c100"></path><ellipse cx="25" cy="4.995" rx="6.5" ry="1.001" style="fill:#fffacf"></ellipse><ellipse cx="25" cy="23.993" rx="23.5" ry="21.5" style="stroke-miterlimit:10;stroke:#45413c;stroke-width:1.25px;fill:none"></ellipse><ellipse cx="24.5" cy="30.91" rx="6" ry="9" style="stroke-linecap:round;stroke-linejoin:round;fill:#ff6242;stroke:#45413c;stroke-width:1.25px"></ellipse><ellipse class="f" cx="32.914" cy="16.207" rx="4.08" ry="6.127" transform="rotate(-16.619 32.915 16.21)"></ellipse><ellipse class="f" cx="16.086" cy="16.207" rx="6.127" ry="4.08" transform="rotate(-73.381 16.086 16.207)"></ellipse><path class="a" d="M33.5 47.507a23.512 23.512 0 0 1 0-11c1.5-6 6.5-11.5 10-9.5s1 7.525 1.5 12.5a15.811 15.811 0 0 0 3 8z"></path><path class="g" d="M33.5 41.425c1.5-6 6.5-11.5 10-9.5a3.508 3.508 0 0 1 1.693 2.325c.323-3.156.58-5.944-1.693-7.243-3.5-2-8.5 3.5-10 9.5a23.409 23.409 0 0 0-.524 7.94 21.539 21.539 0 0 1 .524-3.022z"></path><path class="h" d="M33.5 47.507a23.512 23.512 0 0 1 0-11c1.5-6 6.5-11.5 10-9.5s1 7.525 1.5 12.5a15.811 15.811 0 0 0 3 8z"></path><path class="a" d="M16.5 47.507a23.512 23.512 0 0 0 0-11c-1.5-6-6.5-11.5-10-9.5s-1 7.525-1.5 12.5a15.811 15.811 0 0 1-3 8z"></path><path class="g" d="M16.5 41.425c-1.5-6-6.5-11.5-10-9.5a3.508 3.508 0 0 0-1.693 2.325c-.323-3.156-.58-5.944 1.693-7.243 3.5-2 8.5 3.5 10 9.5a23.409 23.409 0 0 1 .524 7.94 21.539 21.539 0 0 0-.524-3.022z"></path><path class="h" d="M16.5 47.507a23.512 23.512 0 0 0 0-11c-1.5-6-6.5-11.5-10-9.5s-1 7.525-1.5 12.5a15.811 15.811 0 0 1-3 8z"></path></g></svg>